/* XPM */
static char *east[] = {
"8 8 3 1",
"  c #4682B4",
". c #1E90FF",
"# c #000000",
"########",
"#......#",
"#. .. .#",
"#......#",
"#. .. .#",
"#......#",
"#......#",
"########"
};
