/* XPM */
static char *north[] = {
"8 8 3 1",
"  c #B22222",
". c #8B0000",
"# c #000000",
"########",
"#......#",
"#.    .#",
"#.    .#",
"#.    .#",
"#.    .#",
"#......#",
"########"
};
