/* XPM */
static char *wood[] = {
/* columns rows colors chars-per-pixel */
"128 128 26 1 ",
"  c #2F250F",
". c #342710",
"X c #352A12",
"o c #3C2C14",
"O c #3F2F18",
"+ c #412E16",
"@ c #463517",
"# c #473718",
"$ c #4A351A",
"% c #473818",
"& c #4A3919",
"* c #523C1C",
"= c #5A3F1E",
"- c #5B411F",
"; c #5D4120",
": c #644422",
"> c #694724",
", c #6D4825",
"< c #714B27",
"1 c #754C28",
"2 c #784E2B",
"3 c #7E522D",
"4 c #83552F",
"5 c #865630",
"6 c #885730",
"7 c #8A5831",
/* pixels */
"OOOOOOOO+++++++++OOOOOOOOO+OOOOOXo@o+oo@oOOO+OOOOO++OOOO+OOOOO+++OOO++OOOO+++OOO++@OOOOOOOOO+++OOOOOOOOOo@oOOO@OOOOO++++OOOOOOOO",
"$$$$$$$$$$$$$$$$$$$$$$$$$$$$$$$$@-%%&&@&&$$$$&$$$$$$$$$$$$$$$$$$$$$$$$$$$$$$$$$$$$$$$$$$$$$$$$$$$$$$$$$$&&&%&%$$$$$$$$$$$$$$$$$$",
"::;:;::=;;;;;;;;;::;=::;;;::;:;;:::-::::;:;:::;;;;:::;:;::;;;:;::::;;:;;;;;;;::;;;;:;:;:;;:;;;:;::;::;;:::-::;;;;:-:;;:;:;:::=;:",
"11111112222222221221222221111112111111111111111121111121211211111121222222221211121111211122122211121112111111311111122221111222",
"77777777666655657777776675777777476676747777777777777777777777777777676777757777777777777777777777777777775777637777777777777777",
"44444444444444443422223544447444434444414444444445324421224444444332352222444444444455224422222444444444444444334444422432223444",
";:::::;::::::==*;=$+$*;::::::;;:--::-:--:::;;::::;**==$+&*-:;::::;**;=$+$*;::::::::::=**==$+**;:;:;:::;:----::--:::=**;=$+$*=:::",
"&****========*++=*. o@=;**&*****--------*=**=****$+$=*. .&=:-*****@@=*. X$=;=**&$****$@$=*. .$=;**==*$**--------===*+@=*. X$=;=*",
"&&&&;>>>,,,,,:*=2>+ +;12:*&&&&&&--->,:-o---#---%$&$-1,o +=13<:&*::*;2,o +=12:*&&&&&***$=2>+ +=11=*;:-##%-:--::-%:<,:*=2>o +=22,:",
"&&&*:,<1111<<>=:51+ @:55<=&&&&&@o--,<>-#--#----#@%*:72+ @:573>**,,=:42+ $:57<=*&%%&*=:=:51+ @:52-*,,-%#-:>-->>--:11>=:72+ $:471>",
"@@&&:<11111<>;*:52+ @:47<:*@%%@&--,11>--::-#::-X%&&:42+ $:573>**>,=:42+ @:472>;*$$*=>>=:42+ $:44-*>,-Xo-::#->>-->21<=:52+ @:471,",
"%&&*:><1111,;=*:42+ @:472:*&%%@&--<<1>--::--::-#%&*:42+ @:573:**>,=:42+ @:473<:;**;:<,=:52+ @:44-*>>-###>--#:-%%>11>=:41+ @:471,",
"%%%&-><1111,;**:52+ @:473>=*%%%&--:<<:-#::--::-#%&&:42+ @:472:**>,;:42+ $:572<<:;=,<1,=:42+ @:54-&>,-#-->>%--:%->11,=:43+ @:471>",
"&%&&=;>1111,;**:42+ @:473<=&&%&&--><<-#-::#-::-#%&*:42+ @:471;**>,=:42+ @:47322<::<21,=:42+ @:44-*>,&#O%,>-%>:-%>12>=:41+ @:471>",
"*&&&*=><<11,=**:42+ @:473>-*&%%&--<1<:-#:--#---#%&*:72+ @:471:&*>,=:42+ @:4722<<<<111>=:42+ $:42-&>>-##->>-->>-->11,=:43+ @:461,",
"-=&&&=:><1<>=**:52+ @:473>;*&%&*-:<<,:--:-#----#%&*:42+ @:471:**>,=:42+ @:572<<211111,=:42+ +:54-->>-O#-,>-->>-->11>=:41+ @:44<>",
"::&&&*=><<>;*&*:42+ $:574>:**&**:><1,:#-----::-#&&*:52+ #:472:&;>,;:52o @:474<1111111,=:42+ +:44-->>-##%,:-&,:-&:<1,=:52+ @:44:=",
",:*@&&*;>>;*&@*:42+ +:474,:=&&*=><<<,-------::-#%$*:52+ #:471;&&>,=:52+ @:472<<1<1111,=:52+ +>52-->>%##-,,&->:-*:,1>=:52+ $:44:*",
",:*&&*&*;;=*&&*;52+ @:572,,;*&*:,<1<>--o--o----#%&&:52+ @:44,;&;>,;:52+ @:474<111111<,=:51+ @:54-%:>-##-,>-&>>*&:<1>=:42+ +:44:*",
"<:*&**&&*=**&&*:42+ @:473<<:**=:<11,----:-#----##&$:52+ @:44:-&&>,=:52+ @:472<<111<12,=:52+ @>54--:--#X->>&->,-*;,<,=:42+ $:44:*",
"1,-&&&&&**&$@&*:52+ @:474<<,;=:><11<--##::-#---X%&*:52o @:55,=&;>,=:42o.@:47211<1111<>=:51+ @:44---:-X#-,>--,>-&=:<>=:42+ @:44:*",
"1,;*&@&&**&&@$*:42+ @:57211<::><<11,----::#-::-#%&&:52+ @:55:*&&>,=:42o @:473<1111<12>=:52+ @;42-%>>-##->>-&>>&&*:<,=:42+ @:44:$",
"1,;&&&@&&&&&***:42+ @:774<1<>,<<11<>---#::-#::-##&*:52O @:53;%#*>,=:52+.@:7721111<111,=:52+ @:44-->>-XO->>&->>-&=:<>=:42+ @:44=&",
"<,:=&&@&&&&&==*:42+ +:472<<<,,<111<--#X-::--::-#$&*:52+ @:53;#&=,,=:52o @:4711<111<12,=:51+ @:44-->,--O->;-&:>-&*;<>;:42+ @:44=@",
",<,:*@&&@&*=:>=:4<+ @:474<1<<,<1111,--#-::&-::*##%&:42+ @:42=&*;<>=:52o @:472<<112<11,=:42+ @:54-%>>-%%->>-&>,-&&=,,=:42+ @:44*@",
",,<,*&&%$$*=,,=:44+ @:472<1<<,<<11<,--##::&&::&#%&*>42+ $:44;&*:<>=:42+.@:451,<11<11<,=:42+ @:54-->>-%X-,>&-,,;*%*>,=:42+ @:44=&",
",<<,-&&@@$$;,,=:41+ @:474<<1<<111<<:--X-::-&::*#%&*:72+ @:43-&=:,,;:42+ @:471,<1111<<:=:42+ @:44--->%#%->>&->,;*&*>>=:42+ @:44=&",
">><,:=&%$*=:<,=:44+ @:571<<11111<<,:-X#-::&-::*#%&&:42+ @:44-&=><,=:42+ @:45<><<1<2<,:=:42+ @;42-%:>-##->:-*>,;&&*><-:42+ @:43-@",
";:<1,:*&$=:<1,=:41+ @:47411111<11<<:-@@-::--::*#%%*:42+ @:43=*:<2>;:52+ @:44,:,2111<,:=:52+ @:44-->,%%%->>**>,=*&*,,=>42+ &:43-@",
"=:,11,-**;,1<:=:4<+ @:472<<<11111<<:-@@%::&%::*&%$*:42+ $:44==:22>=:42+ $:44:;>21<<<,:=:42+ @:44-->>-%%%,>**><=*&*,,=:42+ @:44-#",
"==,11<,:==,<>;*:4<+ @:471,<21111<<:-@o#-::-&::*%%&&:42+ @:44:;>12>=:42+ +:54;*><11<,:;*:42+ @:54-%>>-%%->>**>,-*&*>,=:42+ @:44:&",
"&=><111,;;,,;=*:44+ @:471,<<111<<,:---#-:-&-::*%%&*>42+ @:45>:<1<>=:42+ @:44=&;,<,>:;**:42+ @:54--::%%%%>>**><-*&*>,=:41+ @:44:*",
"&=:,<11<;;,,;**:42+ @:471,<<<1111,:=&&&*::-&::*%#%*>42+ &:44::<<<>*:42+ %:43-&-:>>>-*&*:42+ +:44-%>,-%%%,>**>>:*&->,-:33% #-33>-",
"%*:,<11<:><,;**:42+ @:55<,<111111,:=&##*::&-::*%@&&:42+ @:47<:<<,:=:42+ #:54-&*->:=*&@*:42+ @:44-->,-%%->>*-><--&*>,-:33# -:33--",
"%*:,<111<<<<=**:42+ @:55,:<111111<:=*#@*::&&::*%&&*:42+ @:471,<1<:=:42+ @:53-%&*==*&&&*:42+ @:44--->-%%->>**><:*&*:>->31X %-63--",
"%*;,<1<1<11,=**:52+ @:45>;,111<11,;*&@&*::-&::*%&%*:42+ @:473111>;=:52+ #:53-%%&*=&@&&*:52+ @:42-%:>%%%%>>**><:-*&::->33% %-33:-",
"%&-:><<111<,*&*:42+ @:44>:,111111,;$$$@*::%-::-@@%*:42+ @:47211,:==:52O @:54-##%&&&&&&&:42+ @:44-->>-%#%,>**>1,-**::-:33o -:671:",
"&&=;>,<111<:*@*:42+ @:44>;,<<1111,;**$&*:-%%::-@&&*;72+ @:77211,:=*:52o @:53-###&&@&@&*:42+ @:44-->>-%%->>**>1<:*&::-:31O o-371,",
"&&*=:,<11<:;*@*:52+ @:44:=:<11111,;*$&*=::%-:-%#@&*:42+ +:4741,>;=*:52+ @:43-##%%%#%&&*:52+ @:43-%>>%%%%>>**>1,:**::-:33o #-371,",
"%&&=:,<11,:*&@*:42+ @:44:=:<<11<1>=$@&**>:--:--#@&*:42+ @:4721,:;=*:51+ @:54-##%%%%%@&*:42+ @:43--::-%%->>**><<:&*::*:33O -:461,",
"%%%==:<11,;*@&*:42+ @:44:=:<<11<,:-&@*&=>:-%-:-@&&&>42+ &:473<<:***:42+ +:74=@#&%%&%%%*:42+ @:44--->-%%%>>-%>1,-**=;=:52# %;461>",
"%%@&*:,11,;*&&*:42+ @:44:*:,<111,:&%@&*=::%-::-%&&&:72+ @:473<,;*&*:42+ @:54-&%@&%%&&**:52+ $:44-%>>%%%->>%-><<>*&*=*:42o %:461>",
"%%%&*;,11,;*&&&:42+ @:44=&=:<11<,:&%&&&:>:-&:-%%&&*:42+ @:473,>-$&*:42+ @:44>*&&%%%&***:42+ @:44-->>-%%->>-->1<>*&*;*:41# %:471>",
"&&@@*;>,<:=&&@*:41+ @:54;&*:,11<,;-@&&&->:&-:--%&&&:41+ @:472>-*&&$:42+ @:44,=*&&%&*--=:42+ @:44-->>%%%%>:-%>11>*&*=*:44o %:471,",
"=&&&*=:;;=*&@@*:43+ @:43=&*:,11<>-&%%&-:::-%::-%@&&:42+ @:473:*&&&*:42+ @:471:=*&&*=>:=:42+ @:43-%>>*%%->>*--,1>*&&&*:41+ @:461>",
"=&&&&*==**%%&**:41+ @:44-&*:,11,:-&%&&-=>-%-::-%@&*:52+ @:47<:&%&&&:42+ @:471>:=**=:>>=:42+ @:44-%>>*%%->>%-:,1>*&&&*:41+ @:461,",
"**&&&**=&@%&***:43+ @:44-&*;>,,>=-&&%&-:>:-&:-%%&&*:42+ @:45,-&%&&&>72+ @:7721>:==:><>=:42+ @:43-%>>*%%%>>*%:<1,-&&&&:61+ %:461,",
"*=&%@&&*&%@@***:41+ @:44-@*=:>>::-&@%&-;>;&-:--%&$*:42+ @:44:-&%@&*:42+ @:4721<>:>><1>=:41+ @:44-->>-%%->>*--,1,;*&&*:61+ %:46<>",
"**&&%&&&&%%&-&*:41+ @:44-&&--;:;-&&&%&-=--##---X#%--33o @:44-%%%&%*:52+ @:474<1,,,,11,-:42+ @:44-->,-#X->>*&=:<,;*@%&:42+ @:45,;",
"==&&&%%%%&%&*-*>44+ @:44-%&-*-;=-&&&%&-:--#-::-#%%--31- @:44-%%%@%*:42+ @:573,11<,<11,=:41+ @:44-->>-##-,>-&*:<,;*&&*:42+ @:44>=",
":;*&%%%&&%%*:==:41+.@:44-&&&=*=*&&&&%-::--X-::-#%#%-41X @:53-##%%&*;52+ +:47211<<<111,=:42+ @:43--:>%##->>*&=:<,:*&&*:42+ @:44:*",
",:*@%&%%@%%*::=:4<+.@=44-%%&&**&&@@&%&::--%#::-#%---41o @:44-##%&&*:52+ $:474<1111111,=:42+ @:43-%:--##O,>*$*:,,:=&&*:42+ @>44:*",
",:*&%%%&@@&&::=:61+ @:44-%%%&&&&&%&%%&:>-##----#%&-:43o @:53-%%&***:52+ @:472<<1<111<,-:42+ @>44-#-:-OO->>-%*;<<:*&@*:42+ @:44:*",
"<:*&&%%%&@&-::=:41+ @:44-%%%&%&%%%%%@-:>--#-:--#%%&-61# @:44-%%&***:42+ @:473<111111<,-:42+ @:43-->>-%-->,*%&-,<>;*&*:43+ @:44:$",
",:-&&&%&&&*====:41+ @:44-%%&%%&%%&%&*=>>-X#-::%#%&--41o @:43-#%&***:42+ @:4741<111111,-;41+ @:44-->>-O#*>>*&*-,<>:***:41+ @:44=@",
">:=&&%%%&@**==*:44+ @;44-%%%%&%%%%&@-=,,-##-::-#%&-:53o #:54-#%&***:51+ @:471<11<111<,-:43+ @:44-->>*##-,>*&*-,1<:;**:41+ @:44;@",
";;=*&&&%%&-&*=*:41+ @:44=@@%%%&&%%%&-=,>-@%-::-#%&--41@ @:44-##&*=*:42+ @:472<<<<1111>-:33O -:73-->>-%#->,-&&-,<,>=**:42+ @:44=@",
"===*&@&%&&--***:41+ @>44=@%%&%%%&%&&-:,>-@%%::-#%&&:43+ @:44-##&;;=:52+ @:55<<<<11111,-:41O #>33-%>>-#%%,>&%*-,<<>=**:42+ @:44=@",
"*=:;&%&@%*=:**-:52+ @:44-%%%%&%&%&&&-:,>-%%--:-%&&--41+ @:44-@&*;:=;42+ @:47<<<111111>-:43O #-73-%:>-%%->,-#%*>11>:*%-42+ @:43=@",
"*=>>-&&@%*::-*&:52+ +;44-%%%%&%%%&&&->,,-@%%---#&&&:61+ @:43-@&*::=:42+ @:45<><11<111>-:31o #:73--:>-%X->>&##->11<:**-42+ @:44-@",
"*=>>=&&@%*:>*&*:42+ @:44-%%&%%%%&%@--:<>%@-----X&&-:41+ @:42=&&=::=:42+ +:45,:<111<1<:-:41O %:33-->,%##%>>-#&*>11<:**:42@ @:43-#",
"*=::=*&&&-:=-@&:42+ @:44;%%%&%&%%%@-:,1>-@X#---#%&&:61+ @:44=&*;>>=:42+ @:45,;,<111<,:-:43@ %:33-->>-#%-,>*#&*>11<:=*:42+ @:44-#",
"@*=;=*@&-::-&@*:52+ @:44:&%%%&%%&%%&:,1>-o--::-#%&&:41@ @:44-&*;,>=:42+ @>45,;><111<<:--51o %-33-%>>-%%-,>*@@*:,1<,:=:41+ @:43-#",
"@**==***:>=-&&*:42+ @>44:*&%%%%&%%&-:,<>-X#-::-#%&&>61+ @:44-*=:<<=:52+ @:55:=:,<11<>:-:43o -:31-->-%%%%>,*@&&:,<1<:=:41+ @:43-#",
"@&*=:;=*:>=*&&&:42+ $:44>=&&%%%%@&*=><,:*&&*>:&%$$*:4<+ @:44;=:,<>=:42+ @:44=*:,111<:-=:42+ @:44=*>>*%#*>>-o%-:,1,,>-:41# @:43-%",
"&@*=>>==>:=*&&&>42+ @:44,;&&&&%@&@*;,1,:*&*->>&%$$$:44+ @:44:=:<<<=:42+ @:44=$;,<1<>:**:42+ @:44=&>>-%%*>,--X-->11<>-:41o %:44-%",
"@&*=>:==:>=*&&*:42+ @:471;=&&%@&@&*:<1,>*@*-::-%@&*:41+ @:45>;,11>=:42+ @:54=*=:<<<:*$*:42+ @:44;*>,*#%*>>-o%%--,1<>-:41+ %:43-#",
"&&**::;;::=*&&&:42+ @:471>-*&%&&&&=:,<>;*&*=>:&%&&$;44+ @:45,:,12,=:42+ @:54=$*;,<,:*&&:42+ @:43-*:>-%%*>>---#--,11>-:43+ %:43-%",
"@@&*;;:>:;*@&&&>42+ @:473>;=&@&&**=:<<>=&&-=>:&%@&*:41+ +:57<,<11>=:52+ @:43=&&*:,:-&&*:72+ @:43-&>,&##&>,--O---<11,->41+ @:44;&",
"&&&&*;>:;*&@&&&>52+ @:473<:=*&@&*==><,;=&**:>:-%@&*:4<+ $:471,<11>=:42+ @:44=@@*::-*&&*:42+ @:44-->>-##->,---O--,11,-:61+ @:44:-",
"%&&&*=;;=*&%&&*:42+ @:473<>:**&&*=><<,;*&&-;>:&%@&*:54+ @:472<111,=:42+ @:43-@&&;;*&&&*:42+ @:73-->,-##&>>-#o---,11,-:41+ @:44;*",
"%%&&**==**&&&&&:52+ @:443<<>=*&&*;,11,;*&&*:>:*%@@*:51+ @:474<111>=:52+ @:44-&&&**&@@&*:42+ @:44-&,:&##-::--###-,11,-:41+ @:44:-",
"&%&%&&**&&&#&&*:42+ @>472<<,:**$*:<<1,=*&*-=>:*%%&*:42+ @:474<1<<>=:42+ @:44-##&&*%%%&&:52+ @:43-&;>-##-:,--%%--,11,=:52+ @:44:=",
"&%%%%&**&#&&#&&>42+ @:474<<<>=$*=><11<=*&&-:>:*%%&*:51+ @:474<1<,:=:42+ @>43-@##%%%%%&*:42+ @:43-->>-%#%:>--##--,11,=:52+ @:45,;",
"%&%&%&&&&&&@#&&:52+ @:472<1<<>=;><<1<>*@&&:>,:*%%&*:52+ @:472<<<,:=;42+ @:44-##&%%&%%&*:42+ @:74-->,-XO%>,---#--,11,=:51+ @:56<>",
"%%%%%@&%@&&&&&*:42+ @:4741111<:>,1<1<>*%&&:,,:*%%&*:52+ @:474,<<,:=>42+ @:44-###&%%%&&*:52+ @:42-->>-##->>--%##->11>=:52+ @:471>",
"&%&%&%&%&@@&$**:42+ @:472<<111,<<111<:*%%*:,,:*%@&*:42+ @:47411,:-=:42+ #:44-##&&%%%&$*:42+ @:54-->>-%%->,:--#%-:<1,=:52+ @:461,",
"&&%%%%&%&&&&*=*:42+ @:474<<11111111<<:*%%*:,<:&%%@*:51+ @:4721<,;=*:42+ @:44-&%%%%&%&@*:42+ @:44-O>>-%%%,,>-%#X-:<1>=:41+ @:451,",
"*&&&&%%%@&@****:42+ @:472,<11<1111<<,:&%%*><,:*%%&*:52+ @:462<<>;=*>42@ @:44:*&&%&&%@%*:52+ @:43--->-%%->1>--##%:<1>=:52+ @:471,",
"**&%%%&%&@@$***:52+ @:471,<111<1<1<<,:*%%*>1<:*%%&&:52+ @:454<,:;**:41o @:44>-&%%%%%%%*:42+ @:43--->-X%-><,>%##-;,<,=:51+ @:46<:",
"**&&%&%%%%&&-=*:42+ @:471,<<11<1111<:=*%@*><<:&%%&*:42+ &:474<,:=&&:72+ +:55,=$@@&&&&&&>42+ @:44-&>,-%&*:,,:*&&&=><,=:54+ @:44:=",
"==&&%&%&%&&&--*:42+ @:461,<11111111,:*&%%*><,:*%%&*:42+ @:472<>:&&*:51+ @:55,=*$&@@&&&&>42+ @:72-->>&##*:,,:*@&&*:<>=:41+ @:54:*",
">;=&&&&&%&&&==*:42+ @:45,:<<1<11111,:*&%%-:<:-&%%&*:42+ @:474,:=&&*:72+ @:47<:=**@@&*=*>52+ @:54--,,-%#&:<1>*&@&=:,,=:51+ +:44:*",
",>=*&@&@%&--;==:41+ @:44>;,1111<<11,=&&%%*><:-&%%&&:42+ @:472>:=&&*:42+ @:472>:=&&&*==*:42+ +>54-&:,&@&*:,1:*&@**;,>=:41+ @:44;*",
",>=*@&@&&@*=:;=:43+ @:44:=,11111111,*&%%%*><:*&&%&*:42+ @:471>:*&&*:42+ @:474,;=&&*===*:42+ @:43-&:>*&#&-:<,=&&&*;>:=:41+ @:44=@",
">>=**&&@&&*=>>=:42+ @:44:=>1111111<>*%%%&->,:*&&%&*:42+ @:471:;*&&&:42+ @:472<:=**=;;;=:52+ @:44-->>*&#&=;,,;*&&*;>:=:44+ @:44=@",
",>;=*&@&***:>>=:42+ @:44;*:,<11<1<<:*%%&&-,>-&&%@%*:72+ @>473:*&&&*:42+ @:454>,:===:::=:42+ @:44-->>*&&&*:<,;**&*=>:=:41+ @:44=@",
",>:==**&**;;>:*:41+ @:42=*;><1111<,:*%%%*=,>*%%&@&*:42+ +:471;&&&&*:52+ @:444<<::=;:>:=:42+ @:42-->>*&&&*:<,;&@&&=::=:41+ @:44-@",
",>>:=*&**=:::==:51@ @:44-*=:,111<<:-&%&&*:<>*%%&%&*:42+ #:46:-&#&&*:52+ +:572<<,;;:,<>=:42+ @:44-->>-##-*=<,=*@&&=;--:42+ +>44*@",
">>>:=*=*==>>;=*:61+ @:44-@*:,111<,=-&&&&-><>*%%%%%*:42+ @:44:-&#@&*:42+ @:574<<<::,<<,=:52+ @:54-#>>-##O*=,,;*&***==*:42+ @:44-@",
"::>>=====:::=**:51+ @:44-@*;><<<<,-*&&%&;,<>*%%%&%*:42+ @:44:&&#&&&:42+ +:472<1<>><<1,=:42+ @:43-O:>-%#%*=,<:*$@&&-=*:42+ @:43-%",
"==>>>====:>>=**:51+ @:44=%@=:><<,:-&&&%*:<1>*%%&@&*:42+ @:43-##&&&*:52+ $:57411<<<<11,=:42+ @:44-->>-%X-*=,,:=*@&&*=*>42+ @:44-%",
"==:,>:==:>,:=**:41@ @:44=%&&*;>>:-*%%%%*:<<>*%%%%&*:42+ @:44-##&***:41+ @:474,11<<<11,=:42+ @:44-->:-##%*=,<:=**&&==*:62+ @:44-@",
"*=:,,>;:>,,:=**:61+ @:44-%&&**::==&%%%%*:<<>*%%%%&*:42+ @:44-##&***:52+ @:574<<1112<<,=:42+ @:42-->,%#%%*=,<:;**&&&**:42+ @:44-@",
"==:,,>:;>,,:***:41+ @:44=@%%&**==*&%%%%*><<:*%%&%%*:43+ @:44-#&&***:52+ @:572<1111112,=:42+ +:74--,>-#%%*=,<,:=*&&***:42+ %:43-@",
"*=:<,>::>,,:*@&:61+ @:64-%%&%&&***&%%%%-,<<:&%%%%%*:41+ @:43-@&&***:42+ @:472<111<11<>=:42+ $:54-%:-%##-*=,<<:**&****:41+ %:43-@",
"@*:,<>>,<<<:*@&:6<+.@:44:&&%&%&&&&&%%&&;,1<:-%%#&&*>43+ @:44=@@&==*:52+ @:4741<1111<<:=:42+ @:43-->>-%%%---<<:--#o----31@ @:43-%",
"@*:,<4,41<,:*&*:44+ @:44:*&%@&&%%%%&&&*;,<>:&&%%%&*:41+ @:44=@&*===:52+ @:471<11111<<:=:42+ @:44-%>>-%%%X--<<>--#--#--41o %:44-%",
"@*=:>4<<1<,:*&*:41+ +>44:*@@&%%%%&%%%&-:,<:=&&#&%&&:42+ @:44-&&=::=;41+ @:471,<11<1<<:=;42+ @:44-%->-%%%X-:<<>--##X---43# %:43-#",
"@&*:>,>41<,:*@&:41+ @>44:*&@%%&%%&%&%&-:<<:*&###%&&:41+ +:44-&&;>:=:52+ @:47<,<1111<>;=:42+ $:42--:>-%%%--:,<<:--###-:61o %:43-#",
"@@*=:,4,1<<:*&&:41+ @:44:=&%%%%&%&%%%*:,<<:**&&#&&&>62@ @:44=$*:,,=:41+ @:471,<1111<:;*:42+ @:44-->>-####-->1,:--###--61+ @:44-#",
"@**=:,<<1<,:*@*:44+ @:45,=*%&%%%%&%%%&:,<,;*&&##&&&:42+ @:44=*=:,,=:41+ @:55<><1112,;==:42+ @:54-->>%#%%#o-><<>----#--61+ @:43-%",
"@***:,<<1,>=&&*:42+ @>461:=%&&%&%%%%%*:<1,*&&&&&&&*:41+ @:44:*;,1,=:44+ @:45,:<1<2<<:==:42+ @:43--::-%%%---:<<,---##--41+ @:44:&",
"@@**:,,4<>:=&&*:41+ @:461:==&%%%%&%%%*:,<>*&@&##&&&>41+ @:44>;><1,=:42+ @:45>:,<1<<,;=*:42+ @:44-%:--%%%o--:,1,>-o##o-61+ %:44--",
"&&&*=:<1<>:*&&*:51+ @:474>=*@%%%&%%&&-><<:*#%%%#&&&:52+ @:45<>,11>=:52+ @:44>:<<1<<:;**:52+ @:44-%->-X%-#%--<<<>;*&&*:42+ @:44:*",
"@@@**:,<,>:*&&*:51+ @>474,=*&%%%%%%&&:,1<:&#%%&%&&&>52+ @:472,<11,=:52+ @>44>=,<2<<:=**:42+ $:42-->,-%%%#%--,<,>:=*&*:62+ @:44:*",
"@@@&*=>,,:=*&&*:51+ @:471,:=&%&%&&&&*:,1<:*#%&**&&*:41+ @:471<111,=:52+ @:44:=><<<<:=**:42+ @:44-->>-%%###-->,<,;=***:42+ @:44:=",
"&&&&*=:>>:=*&@*:44+ @:471<:=*&&%&&&&->,1::*%%*-*&*&:72+ @:4741<11>=:52+ @:44:=:,<<,:=**:42+ @:44--,,--%###--:,<<>;***:42+ @:45,=",
"@&&&*=:>:==*&&*:41+ @:47<,>:=&%%%%%*::<<:-&##&--&&*:52+ +:4721111,=:52+ @:44:=:,<<:=*$*:52+ @:43-%>,--###%#---<<,:=**:42+ @:45>=",
"&&@&&-:::=*&&&&:41+ @:461,,>;*&%%&&&:<1<:-&##---&&&>52+ @>5741<11,=:41+ @:44;*:,<<;=$@*:42+ @:44-->,---%%%-%--,1,:=**:41+ @:45,;",
"@&@&&--:==*&&&*:44+ @:461<<>;&&%&&&-:<1:-&&##&:-*&*:52+ @:572<111,=:52+ @:44;*=:,>=*&&&:42+ @:43---,-%%%%-X---><<:=**:52+ @:46<:",
"&&@&@&*-==&@@&*:41+ @:46<,<,:=*&&&*-:<1:*####*::*&&:41+ @:4721111>=;42+ +:44;@==::**&&*:52+ @:44-%:,--%%%%-#--><<:=**:52+ @:471,",
"%%&%&&****&&&&*:41+ @:45,:<<:;=$$&&->11>*@###-::*@*:52+ @:4741111>=:41+ +:44*$*=-=*&%&*:42+ +>43-*>,=*&&%%%&*=><1,=**:4<+ @:554:",
"&&&%&&&***&&&@*>41+ @:44:=,<<,==*&=:<1<>*&%%#*::*@*:52+ @:472<112>=:52+ $:44=@$*==&%%&*:42+ @:44-*>,=*&&%%&&*=:,<,;=*:44+ @:474>",
"*&&&&&&&&&@&&**:4<+ @:44;*:<<<,;*=:<<1<:*%%%%*::*$*:52+ @:472<111,=:52+ @:54=&$***&%%&*:42+ @:44-&:,:*&&&%%&&==:<<>:*:41+ +:46<,",
"**&%%&&%&&&&***:44+ +;44=*;<<1<,;:,11<>:*%%%#*::*@$:52+ @:454<11<,=:52+ @:54=@&@**&%%&*:42+ @:43-&:,:=&@%%@@**=:,1,:=:4<+ @:464<",
"**&&%%%%@&@&***:42+ @:44=&=:,11<,,111<:;&%%%%*>>*&*:51+ @:472<<<<:=:41+ @:44-&@&&&&%@&*:42+ @>44---,,;*&%%&%&*=:<<<:=:44+.@:464<",
"=*&%%&&%&@&&***:42+ @:44=&*;,11111111,;*&%%%&-,>*&*:51+ @:4741<<<:=:51+ @:43-@#&%&%%%&*:42+ @:43-&:>,:*&&%&%%&=;,<<:=:41+.+:464<",
"=*&&%%&%&%@*::=:42+ @:54;@&=,1111111,:=&&%%&*:,>*@*:41+ @:472<1<,:=:52+ @:44-#&#%%%%%%*:42+ @:44-&-:>:=&&%%%%&==>,,:=:4<+.+>461<",
";=*&&%%%%&&*::=:42+ @:54-@@*:,<1<11<>:&%%%%*-:<>*@*:44+ @:474<<<,:=:51+ @:43-##&%&%%%&*:42+ @:44-&-->>-=&&%%%%&-:>>:*:44+ +:454<",
";=**&&&@&&&=::=:42+ @:44-&%&->,,<1<>:=&&%%&*;,<>*@&>41+ @:4722,,:==:42+ @:43-##&&%%%%&&:52+ @:44-&-:>,=*&&%&%&&*=;:=*:44+ @:674<",
":;**&@%&&&*=:>=:41+ @:43-@%&*-:,<<>:;*&%%@@$:,1>*&&:43+ @:472<,>:=*:42+ @:44-###%%%&%&*:41+ @:44-&*-,,=*&%%%%%%&====*:41+ @:474<",
">:=*&&%%&&*=>:=:42+ @:44-%%&&*-:,>:;*&&&%%@*:<1>*&&:72+ @:474<>>;=*:42+ @:44-##&%&%%&&*:51+ @:44-%&*,,=*&&%&%%%&@*=**:41+ +:461<",
">:;*&%%%&&*=::=:42+ @:44-%%%&&*-::;*&&#%%&*=:<1,=&*>41+ @:472<>:;**:42+ @:44-###%%&%%&*:72+ @:44-&%-,<=*&%%%&%&%@@$**:41+ @:464<",
",>;=&&&%%&*=>>=:41+ @:44-###&&&*;;*&&#%&%*-><11,:**:42+ @:472>:-*&*:42@ #:53-##&%%%%&&*:42+ @:44,*%*><:*&@%%%&&%$@@*$:6<+ @:464,",
">:;=*&&&$**=:;=:43+ @:44-&&&&#&&**&&%&%&&*:,,,,,:=*:42+ @:471:-*$$*:42+ @:44-&&%%%%&&**:41+ @:44,*&=:,:=*%%%%%%%@$*@*:64+.@:461,",
";;;;=*===*=;-==:42+ @:44:-&&&##&&&&%%%&&*=-::::;;=*:42+ @:47,-*%&&*:42+ @:44:*&%@%&$***:52+ @:44:-&&=:;=&%%%%&&%&@@&*:44+ @:45,:",
"=;=;;;;;:=;=;=*:42+ @:47:*&##&##%%%%&%&&=;=-;==;==*:72+ @:44,*%#@&*:41+ &:55>-&%&@&*==*:42+ @>44,*&%====*%%&%%%&@@&&$:41+ +:44>="
};
